<svg width="35" height="22" viewBox="0 0 35 22" fill="none" xmlns="http://www.w3.org/2000/svg">
<g clip-path="url(#clip0_1_121)">
<path d="M0.728027 2.76611C0.728027 1.2503 1.97096 0.0214844 3.5042 0.0214844H31.2659C32.7992 0.0214844 34.0421 1.2503 34.0421 2.76611V19.2339C34.0421 20.7497 32.7992 21.9785 31.2659 21.9785H3.5042C1.97096 21.9785 0.728027 20.7497 0.728027 19.2339V2.76611Z" fill="#D4DEF7"/>
<path d="M25.313 6.79437L24.6684 8.19921H25.9611L25.313 6.79437ZM17.8748 7.66492C17.9963 7.60791 18.0678 7.4839 18.0678 7.3299C18.0678 7.17899 17.9927 7.0697 17.8712 7.01834C17.7605 6.9614 17.5903 6.95483 17.427 6.95483H16.2738V7.73757H17.4116C17.5938 7.73761 17.746 7.73521 17.8748 7.66492ZM3.09795 6.79437L2.46065 8.19921H3.73909L3.09795 6.79437ZM32.7695 15.7942H30.9609V15.0383H32.7622C32.9408 15.0383 33.0658 15.0173 33.1411 14.951C33.2123 14.8919 33.2526 14.8085 33.2518 14.7212C33.2518 14.6185 33.2065 14.5369 33.1374 14.4881C33.0695 14.4343 32.9705 14.4098 32.8074 14.4098C31.928 14.3829 30.831 14.4342 30.831 13.3188C30.831 12.8076 31.1919 12.2695 32.1747 12.2695H34.0402V11.5682H32.307C31.784 11.5682 31.4039 11.6808 31.1349 11.8561V11.5682H28.5713C28.1614 11.5682 27.6802 11.6596 27.4526 11.8561V11.5682H22.8744V11.8561C22.5101 11.6197 21.8952 11.5682 21.6116 11.5682H18.5919V11.8561C18.3037 11.605 17.6625 11.5682 17.272 11.5682H13.8924L13.1191 12.3209L12.3948 11.5682H7.34631V16.4868H12.2995L13.0963 15.722L13.847 16.4868L16.9002 16.4893V15.3322H17.2004C17.6055 15.338 18.0833 15.3233 18.5049 15.1594V16.4867H21.0232V15.2047H21.1447C21.2997 15.2047 21.315 15.2105 21.315 15.3498V16.4864H28.9655C29.4512 16.4864 29.959 16.3747 30.24 16.1716V16.4864H32.6668C33.1717 16.4864 33.6649 16.4227 34.0401 16.2598V15.3435C33.8127 15.6427 33.3692 15.7944 32.7694 15.7944L32.7695 15.7942ZM17.2405 14.6328H16.0719V15.815H14.2517L13.0985 14.6482L11.9001 15.815H8.19042V12.2903H11.9571L13.1093 13.4457L14.3005 12.2903H17.2931C18.0363 12.2903 18.8713 12.4754 18.8713 13.4515C18.8713 14.4307 18.0591 14.6328 17.2405 14.6328ZM22.8596 14.473C22.9919 14.645 23.011 14.8056 23.0148 15.1163V15.8151H22.0745V15.3741C22.0745 15.1621 22.0973 14.8481 21.9231 14.6842C21.7865 14.5579 21.5778 14.5278 21.236 14.5278H20.2352V15.8151H19.2942V12.2903H21.4562C21.9306 12.2903 22.2758 12.3093 22.5831 12.4566C22.8787 12.6172 23.0647 12.8373 23.0647 13.2394C23.0646 13.8019 22.6475 14.0889 22.4009 14.1771C22.6093 14.2463 22.7796 14.3703 22.8596 14.473ZM26.7282 13.0192H24.5351V13.66H26.6746V14.3792H24.5351V15.0805L26.7282 15.0837V15.815H23.6025V12.2903H26.7282V13.0192ZM29.1347 15.815H27.3107V15.0592H29.1275C29.3051 15.0592 29.4311 15.038 29.51 14.9718C29.5744 14.9173 29.6207 14.8381 29.6207 14.7421C29.6207 14.6393 29.5705 14.5577 29.5064 14.5088C29.4347 14.4551 29.3358 14.4308 29.1729 14.4308C28.297 14.4038 27.2002 14.455 27.2002 13.3397C27.2002 12.8284 27.5574 12.2903 28.5392 12.2903H30.4168V13.0404H28.6987C28.5284 13.0404 28.4177 13.0463 28.3236 13.1042C28.2209 13.1613 28.1829 13.246 28.1829 13.3577C28.1829 13.4907 28.27 13.5812 28.3877 13.6203C28.4866 13.6512 28.5926 13.6602 28.7522 13.6602L29.2564 13.6726C29.7646 13.6836 30.1137 13.7628 30.3259 13.956C30.5081 14.1257 30.606 14.34 30.606 14.7027C30.6059 15.461 30.0792 15.815 29.1347 15.815ZM21.8712 13.0761C21.7581 13.0156 21.5911 13.0124 21.4244 13.0124H20.2712V13.804H21.409C21.5912 13.804 21.7461 13.7982 21.8712 13.7314C21.9926 13.6654 22.0653 13.5438 22.0653 13.3931C22.0653 13.2423 21.9926 13.1332 21.8712 13.0761ZM32.3351 13.0123C32.1647 13.0123 32.0514 13.0182 31.9561 13.076C31.8573 13.1332 31.8193 13.2178 31.8193 13.3296C31.8193 13.4625 31.9028 13.553 32.0241 13.5922C32.123 13.6231 32.2289 13.6322 32.3849 13.6322L32.8926 13.6443C33.4047 13.6557 33.7468 13.735 33.9552 13.9282C33.9932 13.9549 34.016 13.9851 34.0421 14.0153V13.0124H32.3352L32.3351 13.0123ZM17.2729 13.0123H16.0518V13.9101H17.2621C17.6219 13.9101 17.8456 13.7495 17.8458 13.4446C17.8456 13.1363 17.611 13.0123 17.2729 13.0123ZM9.12319 13.0123V13.6532H11.1791V14.3724H9.12319V15.0736H11.4257L12.4955 14.0396L11.4712 13.0123H9.12319ZM15.1357 15.4773V12.6514L13.6978 14.0416L15.1357 15.4773ZM9.20178 9.81806V10.4254H17.0261L17.0224 9.14056H17.1738C17.2799 9.14389 17.3107 9.15267 17.3107 9.31012V10.4254H21.3575V10.1263C21.6839 10.2836 22.1916 10.4254 22.8596 10.4254H24.5621L24.9265 9.64273H25.7343L26.0906 10.4254H29.3713V9.68194L29.8679 10.4254H32.497V5.51074H29.8953V6.09117L29.531 5.51074H26.8612V6.09117L26.5266 5.51074H22.9203C22.3166 5.51074 21.7862 5.58652 21.3575 5.79773V5.51074H18.8688V5.79773C18.596 5.58002 18.2243 5.51074 17.8112 5.51074H8.71923L8.10922 6.78018L7.48273 5.51074H4.61907V6.09117L4.30442 5.51074H1.86218L0.72807 7.84755V9.71674L2.40509 6.19277H3.79658L5.38928 9.52923V6.19277H6.91788L8.14348 8.58334L9.26943 6.19277H10.8287V9.71674H9.86876L9.86526 6.95683L8.50721 9.71674H7.68493L6.32342 6.95439V9.71674H4.4185L4.05865 8.93071H2.10871L1.74515 9.71674H0.728027V10.4257H2.32825L2.68903 9.64293H3.49687L3.85672 10.4257H7.00509V9.8272L7.28609 10.4282H8.92048L9.20152 9.81818L9.20178 9.81806ZM21.5313 6.60353C21.8339 6.32227 22.3081 6.19257 22.9535 6.19257H23.8601V6.94765H22.9725C22.6309 6.94765 22.4377 6.99336 22.2519 7.15646C22.0921 7.3048 21.9826 7.5853 21.9826 7.95464C21.9826 8.3322 22.0661 8.60439 22.2401 8.78221C22.3843 8.92165 22.6464 8.96395 22.8928 8.96395H23.3136L24.6335 6.19269H26.0367L27.6223 9.52582V6.19273H29.0482L30.6944 8.64697V6.19273H31.6537V9.71658H30.3266L28.5515 7.0717V9.71658H26.6441L26.2797 8.93055H24.3342L23.9807 9.71658H22.8847C22.4295 9.71658 21.8532 9.62605 21.5268 9.3268C21.1976 9.02762 21.0265 8.62231 21.0265 7.98154C21.0263 7.45884 21.1285 6.98109 21.5313 6.60353ZM19.6049 6.19261H20.5605V9.71658H19.6049V6.19261ZM15.2966 6.19261H17.4507C17.9292 6.19261 18.282 6.20404 18.5848 6.36141C18.881 6.51881 19.0587 6.74863 19.0587 7.14162C19.0587 7.70353 18.6417 7.99377 18.3988 8.08097C18.6037 8.15114 18.7788 8.27506 18.8622 8.3777C18.9945 8.55299 19.0172 8.70956 19.0172 9.02425V9.71655H18.0727L18.0691 9.27215C18.0691 9.06005 18.0917 8.7551 17.9213 8.58567C17.7845 8.46178 17.5758 8.4348 17.2386 8.4348H16.2333V9.71658H15.2968L15.2966 6.19261ZM11.5213 6.19261H14.6498V6.92644H12.4579V7.56164H14.5972V8.28401H12.4579V8.98777H14.6498V9.71655H11.5213V6.19261Z" fill="#2557D6"/>
</g>
<defs>
<clipPath id="clip0_1_121">
<rect width="33.3141" height="21.957" fill="white" transform="translate(0.728027 0.0214844)"/>
</clipPath>
</defs>
</svg>
