<svg width="26" height="27" viewBox="0 0 26 27" fill="none" xmlns="http://www.w3.org/2000/svg">
<path d="M25.2042 1.22892C25.1288 1.04108 24.9839 0.889556 24.7996 0.80586C24.6153 0.722165 24.4058 0.712744 24.2147 0.779558C24.0237 0.846373 23.8657 0.984277 23.7737 1.16458C23.6818 1.34489 23.6628 1.55372 23.7209 1.74762C24.9286 5.21862 22.5314 7.81082 20.7036 9.19922L19.9652 8.14102C19.7169 7.78612 19.1618 7.49102 18.7302 7.48582L14.5858 7.50402C14.0795 7.51931 13.5868 7.67112 13.1597 7.94342L0.947518 16.5065C0.663461 16.7064 0.470183 17.0107 0.410001 17.3528C0.349819 17.6949 0.427637 18.0469 0.626418 18.3317L6.17612 26.2721C6.59212 26.8636 7.25642 26.7921 7.84922 26.3787L20.0614 17.8143C20.4124 17.566 20.818 17.0304 20.961 16.6209L22.2584 12.5324C22.4014 12.1242 22.3143 11.5015 22.066 11.1466L21.6162 10.5018C24.0706 8.62072 26.6186 5.29662 25.2042 1.22892ZM19.5219 13.3943C19.2969 13.5518 19.0431 13.6634 18.775 13.7228C18.5069 13.7821 18.2297 13.7881 17.9593 13.7403C17.6888 13.6925 17.4305 13.5918 17.1989 13.4441C16.9674 13.2965 16.7673 13.1046 16.6099 12.8795C16.2913 12.4241 16.1665 11.8608 16.2627 11.3134C16.359 10.766 16.6686 10.2791 17.1234 9.95972C17.48 9.70988 17.9058 9.5777 18.3412 9.58166C18.7766 9.58563 19.1998 9.72553 19.5518 9.98182C19.1982 10.195 18.9551 10.3198 18.9096 10.3393C18.7485 10.4162 18.6182 10.5454 18.5401 10.706C18.4621 10.8666 18.4409 11.0489 18.48 11.2231C18.5192 11.3973 18.6163 11.553 18.7555 11.6648C18.8947 11.7765 19.0678 11.8377 19.2463 11.8382C19.3581 11.8382 19.4725 11.8122 19.5804 11.7615C19.8326 11.6419 20.103 11.5002 20.3851 11.3325C20.45 11.7226 20.4034 12.1231 20.2507 12.4878C20.098 12.8526 19.8454 13.1668 19.5219 13.3943Z" fill="white"/>
</svg>
