<svg width="26" height="26" viewBox="0 0 26 26" fill="none" xmlns="http://www.w3.org/2000/svg">
<path d="M12.9111 0.626587C6.10586 0.626587 0.569336 6.16311 0.569336 12.9684V18.0816C0.569336 19.3454 1.67639 20.3734 3.03769 20.3734H4.27187C4.59919 20.3734 4.91311 20.2434 5.14456 20.0119C5.37602 19.7805 5.50605 19.4666 5.50605 19.1392V12.7919C5.50605 12.4645 5.37602 12.1506 5.14456 11.9192C4.91311 11.6877 4.59919 11.5577 4.27187 11.5577H3.15123C3.83744 6.78143 7.94725 3.09494 12.9111 3.09494C17.875 3.09494 21.9848 6.78143 22.671 11.5577H21.5504C21.223 11.5577 20.9091 11.6877 20.6777 11.9192C20.4462 12.1506 20.3162 12.4645 20.3162 12.7919V20.3734C20.3162 21.7347 19.2091 22.8418 17.8478 22.8418H15.3795V21.6076H10.4428V25.3101H17.8478C20.5704 25.3101 22.7845 23.096 22.7845 20.3734C24.1458 20.3734 25.2529 19.3454 25.2529 18.0816V12.9684C25.2529 6.16311 19.7164 0.626587 12.9111 0.626587Z" fill="white"/>
</svg>
